<?xml version="1.0" encoding="UTF-8"?>
<svg width="204px" height="49px" viewBox="0 0 204 49" version="1.1" xmlns="http://www.w3.org/2000/svg" xmlns:xlink="http://www.w3.org/1999/xlink">
    <!-- Generator: Sketch 61.2 (89653) - https://sketch.com -->
    <title>tbraunltd</title>
    <desc>Created with Sketch.</desc>
    <defs>
        <path d="M9.136,34.008 L21.488,26.008 L21.488,22.744 L9.136,14.744 L9.136,19 L17.616,24.312 L17.616,24.44 L9.136,29.752 L9.136,34.008 Z M35.136,35 L35.136,18.104 L41.376,18.104 L41.376,14.136 L24.16,14.136 L24.16,18.104 L30.4,18.104 L30.4,35 L35.136,35 Z M50.32,35 C54.832,35 58.32,33.112 58.32,28.856 C58.32,26.072 56.752,24.504 53.776,23.96 L53.776,23.832 C56.24,23.192 57.36,21.176 57.36,19.32 C57.36,15.32 54.032,14.136 49.712,14.136 L42.704,14.136 L42.704,35 L50.32,35 Z M49.488,22.52 L47.408,22.52 L47.408,17.816 L49.52,17.816 C51.728,17.816 52.752,18.424 52.752,19.96 C52.752,21.56 51.792,22.52 49.488,22.52 Z M49.936,31.32 L47.408,31.32 L47.408,25.912 L49.936,25.912 C52.528,25.912 53.712,26.68 53.712,28.504 C53.712,30.392 52.496,31.32 49.936,31.32 Z M65.92,35 L65.92,26.744 C67.264,23.896 69.312,22.872 71.264,22.872 C72.448,22.872 73.088,23.032 74.08,23.32 L75.04,19.384 C74.112,18.968 73.376,18.744 71.968,18.744 C69.44,18.744 67.104,19.992 65.536,22.584 L65.44,22.584 L65.056,19.128 L61.216,19.128 L61.216,35 L65.92,35 Z M81.84,35.384 C83.888,35.384 85.872,34.424 87.472,33.208 L87.6,33.208 L87.952,35 L91.792,35 L91.792,25.912 C91.792,21.048 89.072,18.744 84.624,18.744 C81.904,18.744 79.376,19.64 77.2,20.888 L78.864,23.96 C80.656,23.064 82.16,22.488 83.696,22.488 C85.84,22.488 86.928,23.352 87.088,24.792 C79.568,25.24 76.624,27.032 76.624,30.584 C76.624,33.272 78.64,35.384 81.84,35.384 Z M83.344,31.736 C82,31.736 81.136,31.256 81.136,30.232 C81.136,28.856 82.416,27.864 87.088,27.608 L87.088,30.232 C85.968,31.096 84.752,31.736 83.344,31.736 Z M98.976,35.384 C101.248,35.384 102.912,34.328 104.32,32.728 L104.448,32.728 L104.8,35 L108.64,35 L108.64,19.128 L103.936,19.128 L103.936,29.56 C102.848,30.968 102.016,31.384 100.832,31.384 C99.072,31.384 98.528,30.424 98.528,28.312 L98.528,19.128 L93.824,19.128 L93.824,28.92 C93.824,32.92 95.36,35.384 98.976,35.384 Z M116.016,35 L116.016,24.408 C117.136,23.32 117.968,22.744 119.248,22.744 C120.976,22.744 121.584,23.704 121.584,25.816 L121.584,35 L126.288,35 L126.288,25.208 C126.288,21.208 124.688,18.744 121.104,18.744 C118.736,18.744 117.008,19.896 115.632,21.24 L115.504,21.24 L115.152,19.128 L111.312,19.128 L111.312,35 L116.016,35 Z M160.752,35 L160.752,31.032 L151.472,31.032 L151.472,14.136 L146.768,14.136 L146.768,35 L160.752,35 Z M172.928,35.384 C175.04,35.384 176.704,34.936 178.112,34.52 L177.28,31.128 C176.32,31.448 175.328,31.704 174.144,31.704 C171.808,31.704 170.784,30.776 170.784,28.376 L170.784,22.808 L177.504,22.808 L177.504,19.128 L170.784,19.128 L170.784,14.264 L166.912,14.264 L166.304,19.128 L162.08,19.32 L162.08,22.808 L166.08,22.808 L166.08,28.408 C166.08,32.568 167.872,35.384 172.928,35.384 Z M185.872,35.384 C187.472,35.384 189.104,34.52 190.288,33.368 L190.384,33.368 L190.736,35 L194.576,35 L194.576,12.568 L189.872,12.568 L189.872,17.976 L190.096,20.44 L189.968,20.44 C188.912,19.352 187.728,18.744 185.968,18.744 C182.512,18.744 179.184,21.88 179.184,27.064 C179.184,32.248 181.84,35.384 185.872,35.384 Z M187.088,31.544 C185.136,31.544 184.016,30.136 184.016,27 C184.016,23.992 185.488,22.584 187.216,22.584 C188.144,22.584 189.008,22.872 189.872,23.64 L189.872,30.072 C189.04,31.128 188.144,31.544 187.088,31.544 Z" id="path-1"></path>
    </defs>
    <g id="Page-1" stroke="none" stroke-width="1" fill="none" fill-rule="evenodd">
        <g id="&gt;TBraunLtd" fill-rule="nonzero" fill="#FFFFFF">
            <use xlink:href="#path-1"></use>
            <use xlink:href="#path-1"></use>
        </g>
        <path d="M1,1 L203,1 L203,48 L1,48 L1,1 Z" id="Rectangle" stroke="#FFFFFF" stroke-width="2"></path>
    </g>
</svg>